<svg width="72" height="103" viewBox="0 0 72 103" fill="none" xmlns="http://www.w3.org/2000/svg">
<path d="M36 48.8571C32.5901 48.8571 29.3198 47.5026 26.9086 45.0914C24.4974 42.6802 23.1429 39.4099 23.1429 36C23.1429 32.5901 24.4974 29.3198 26.9086 26.9086C29.3198 24.4974 32.5901 23.1429 36 23.1429C39.4099 23.1429 42.6802 24.4974 45.0914 26.9086C47.5026 29.3198 48.8571 32.5901 48.8571 36C48.8571 37.6884 48.5246 39.3603 47.8785 40.9202C47.2323 42.4801 46.2853 43.8975 45.0914 45.0914C43.8975 46.2853 42.4801 47.2323 40.9202 47.8784C39.3603 48.5246 37.6884 48.8571 36 48.8571ZM36 0C26.4522 0 17.2955 3.79285 10.5442 10.5442C3.79285 17.2955 0 26.4522 0 36C0 63 36 102.857 36 102.857C36 102.857 72 63 72 36C72 26.4522 68.2072 17.2955 61.4558 10.5442C54.7045 3.79285 45.5478 0 36 0Z" fill="#8CF104"/>
<rect x="18.8574" y="20.5713" width="41.1429" height="37.7143" fill="#8CF104"/>
<path d="M16.69 51V28.68H22.03C23.35 28.68 24.27 28.99 24.79 29.61C25.33 30.23 25.6 31.13 25.6 32.31V35.73C25.6 37.37 25.04 38.4 23.92 38.82C25.22 39.32 25.87 40.41 25.87 42.09V46.92C25.87 48.18 25.57 49.18 24.97 49.92C24.39 50.64 23.49 51 22.27 51H16.69ZM21.1 40.83H20.08V47.85H21.1C21.62 47.85 21.97 47.73 22.15 47.49C22.33 47.25 22.42 46.87 22.42 46.35V42.27C22.42 41.77 22.33 41.41 22.15 41.19C21.97 40.95 21.62 40.83 21.1 40.83ZM21.1 31.71H20.08V37.5H21.1C21.88 37.5 22.27 36.98 22.27 35.94V33.12C22.27 32.62 22.18 32.26 22 32.04C21.84 31.82 21.54 31.71 21.1 31.71ZM30.5118 34.65H31.1118C33.5118 34.65 34.7118 35.99 34.7118 38.67V43.32H29.9418V47.04C29.9418 47.84 30.2318 48.24 30.8118 48.24C31.3518 48.24 31.6218 47.85 31.6218 47.07V44.4H34.7118V47.22C34.7118 49.94 33.4618 51.3 30.9618 51.3H30.3918C29.2718 51.3 28.4018 50.96 27.7818 50.28C27.1618 49.6 26.8518 48.59 26.8518 47.25V38.52C26.8518 37.36 27.1518 36.43 27.7518 35.73C28.3518 35.01 29.2718 34.65 30.5118 34.65ZM29.9418 38.64V40.68H31.7118V38.64C31.7118 37.78 31.4218 37.35 30.8418 37.35C30.5818 37.35 30.3818 37.41 30.2418 37.53C30.1018 37.65 30.0118 37.8 29.9718 37.98C29.9518 38.14 29.9418 38.36 29.9418 38.64ZM35.8795 51V28.68H43.5895V31.92H39.2695V37.8H42.6895V41.19H39.2695V51H35.8795ZM47.7006 34.86V51H44.4906V34.86H47.7006ZM47.7006 30.54V33.99H44.4906V30.54H47.7006ZM55.4245 51H52.2445C50.9645 51 50.3245 50.34 50.3245 49.02V37.92H48.4945V34.86H50.3245V29.55H53.5345V34.86H55.4245V37.92H53.5345V47.16C53.5345 47.46 53.5645 47.66 53.6245 47.76C53.7045 47.86 53.8845 47.91 54.1645 47.91H55.4245V51Z" fill="white"/>
</svg>
