<svg width="42" height="60" viewBox="0 0 42 60" fill="none" xmlns="http://www.w3.org/2000/svg">
<path d="M21 28.5C19.0109 28.5 17.1032 27.7098 15.6967 26.3033C14.2902 24.8968 13.5 22.9891 13.5 21C13.5 19.0109 14.2902 17.1032 15.6967 15.6967C17.1032 14.2902 19.0109 13.5 21 13.5C22.9891 13.5 24.8968 14.2902 26.3033 15.6967C27.7098 17.1032 28.5 19.0109 28.5 21C28.5 21.9849 28.306 22.9602 27.9291 23.8701C27.5522 24.7801 26.9997 25.6069 26.3033 26.3033C25.6069 26.9997 24.7801 27.5522 23.8701 27.9291C22.9602 28.306 21.9849 28.5 21 28.5ZM21 0C15.4305 0 10.089 2.21249 6.15076 6.15076C2.21249 10.089 0 15.4305 0 21C0 36.75 21 60 21 60C21 60 42 36.75 42 21C42 15.4305 39.7875 10.089 35.8492 6.15076C31.911 2.21249 26.5695 0 21 0Z" fill="#8CF104"/>
</svg>
