<svg width="88" height="96" viewBox="0 0 88 96" fill="none" xmlns="http://www.w3.org/2000/svg">
<path d="M37.4 2.18098L4.4 26.8702C1.65 28.9551 0 32.1921 0 35.6486V85.027C0 91.0622 4.95 96 11 96H77C83.05 96 88 91.0622 88 85.027V35.6486C88 32.1921 86.35 28.9551 83.6 26.8702L50.6 2.18098C48.6924 0.764832 46.3779 0 44 0C41.6221 0 39.3076 0.764832 37.4 2.18098ZM46.75 49.3648C46.75 53.9186 43.065 57.5946 38.5 57.5946V76.7973C38.5 78.3335 37.29 79.5405 35.75 79.5405C34.21 79.5405 33 78.3335 33 76.7973V57.5946C28.435 57.5946 24.75 53.9186 24.75 49.3648V35.6486C24.75 34.1124 25.96 32.9053 27.5 32.9053C29.04 32.9053 30.25 34.1124 30.25 35.6486V49.3648H33V35.6486C33 34.1124 34.21 32.9053 35.75 32.9053C37.29 32.9053 38.5 34.1124 38.5 35.6486V49.3648H41.25V35.6486C41.25 34.1124 42.46 32.9053 44 32.9053C45.54 32.9053 46.75 34.1124 46.75 35.6486V49.3648ZM57.75 79.5405C56.21 79.5405 55 78.3335 55 76.7973V60.3378H52.25C50.71 60.3378 49.5 59.1308 49.5 57.5946V43.8783C49.5 39.0502 52.635 34.9353 56.98 33.5088C58.685 32.9053 60.5 34.277 60.5 36.1424V76.7973C60.5 78.3335 59.29 79.5405 57.75 79.5405Z" fill="white"/>
</svg>
