<svg width="76" height="97" viewBox="0 0 76 97" fill="none" xmlns="http://www.w3.org/2000/svg">
<path d="M16.1613 96.6616C14.6434 96.6616 13.3702 96.1496 12.3416 95.1256C11.3131 94.1016 10.8006 92.8358 10.8041 91.3283V75.3283H64.3755V91.3283C64.3755 92.8394 63.8613 94.1069 62.8327 95.1309C61.8041 96.1549 60.5327 96.6652 59.0184 96.6616H16.1613ZM75.0898 27.3283V43.3283C75.0898 43.595 75.0005 43.9505 74.822 44.3949L70.8041 64.6616C70.5363 66.2616 69.7988 67.5505 68.5916 68.5283C67.3845 69.5061 65.9791 69.9949 64.3755 69.9949H10.8041C9.19698 69.9949 7.78984 69.5061 6.5827 68.5283C5.37556 67.5505 4.63984 66.2616 4.37556 64.6616L0.357702 44.3949C0.17913 43.9505 0.0898438 43.595 0.0898438 43.3283V11.3283C0.0898438 8.39496 1.13984 5.88296 3.23984 3.7923C5.33984 1.70163 7.86127 0.658075 10.8041 0.66163H53.6613C56.6077 0.66163 59.1309 1.70696 61.2309 3.79763C63.3309 5.8883 64.3791 8.39852 64.3755 11.3283V27.3283C64.3755 25.8172 64.8898 24.5496 65.9184 23.5256C66.947 22.5016 68.2184 21.9914 69.7327 21.995C71.2505 21.995 72.5238 22.507 73.5523 23.531C74.5809 24.555 75.0934 25.8207 75.0898 27.3283ZM16.1613 37.995H48.3041V21.995H16.1613V37.995Z" fill="white"/>
</svg>
