<svg width="102" height="102" viewBox="0 0 102 102" fill="none" xmlns="http://www.w3.org/2000/svg">
<path d="M34.277 97.6557C30.618 100.266 26.2342 101.666 21.7397 101.66C17.7679 101.659 13.8729 100.566 10.4811 98.4989C7.08936 96.4321 4.33177 93.4717 2.51039 89.9419C0.689008 86.4121 -0.125916 82.4492 0.154878 78.4871C0.435673 74.5249 1.80136 70.7165 4.10234 67.479L34.277 97.6557ZM76.852 59.0023L60.7655 67.313C59.8805 67.7632 59.1364 68.4482 58.6147 69.2931C58.093 70.138 57.8139 71.1102 57.808 72.1032V87.931C57.8139 88.924 58.093 89.8962 58.6147 90.7411C59.1364 91.586 59.8805 92.2711 60.7655 92.7212L76.852 101.032C77.6551 101.446 78.5455 101.662 79.4489 101.662C80.3523 101.662 81.2427 101.446 82.0458 101.032L98.1322 92.7212C99.0173 92.2711 99.7614 91.586 100.283 90.7411C100.805 89.8962 101.084 88.924 101.09 87.931V72.1032C101.084 71.1102 100.805 70.138 100.283 69.2931C99.7614 68.4482 99.0173 67.7632 98.1322 67.313L82.0458 59.0023C81.2427 58.5885 80.3523 58.3726 79.4489 58.3726C78.5455 58.3726 77.6551 58.5885 76.852 59.0023ZM39.3771 92.5553C41.9865 88.8957 43.3863 84.5118 43.3807 80.0171C43.3803 76.0451 42.2869 72.1497 40.2202 68.7578C38.1536 65.3658 35.1934 62.608 31.6638 60.7865C28.1343 58.965 24.1716 58.15 20.2098 58.4308C16.2479 58.7116 12.4398 60.0774 9.20239 62.3786L39.3771 92.5553ZM72.2352 0.661621C68.4089 0.661621 64.7393 2.18174 62.0336 4.88756C59.328 7.59339 57.808 11.2633 57.808 15.0899V29.5182C57.808 33.3448 59.328 37.0147 62.0336 39.7205C64.7393 42.4263 68.4089 43.9464 72.2352 43.9464H86.6625C90.4889 43.9464 94.1585 42.4263 96.8642 39.7205C99.5698 37.0147 101.09 33.3448 101.09 29.5182V15.0899C101.09 11.2633 99.5698 7.59339 96.8642 4.88756C94.1585 2.18174 90.4889 0.661621 86.6625 0.661621H72.2352ZM13.8985 5.52395C14.6241 4.06477 15.7424 2.83701 17.1277 1.97876C18.5129 1.1205 20.1102 0.665808 21.7397 0.665808C23.3693 0.665808 24.9665 1.1205 26.3517 1.97876C27.737 2.83701 28.8553 4.06477 29.5809 5.52395L42.4212 31.0403C45.3788 36.9487 41.13 43.9464 34.5656 43.9464H8.89942C2.33499 43.9464 -1.92106 36.9487 1.05818 31.0331L13.8985 5.52395Z" fill="white"/>
</svg>
