<svg width="89" height="97" viewBox="0 0 89 97" fill="none" xmlns="http://www.w3.org/2000/svg">
<path d="M37.4898 2.8426L4.48984 27.5318C1.73984 29.6167 0.0898438 32.8537 0.0898438 36.3102V85.6886C0.0898438 91.7238 5.03984 96.6616 11.0898 96.6616H77.0898C83.1398 96.6616 88.0898 91.7238 88.0898 85.6886V36.3102C88.0898 32.8537 86.4398 29.6167 83.6898 27.5318L50.6898 2.8426C48.7822 1.42645 46.4677 0.661621 44.0898 0.661621C41.712 0.661621 39.3975 1.42645 37.4898 2.8426ZM46.8398 50.0264C46.8398 54.5802 43.1548 58.2562 38.5898 58.2562V77.4589C38.5898 78.9951 37.3798 80.2021 35.8398 80.2021C34.2998 80.2021 33.0898 78.9951 33.0898 77.4589V58.2562C28.5248 58.2562 24.8398 54.5802 24.8398 50.0264V36.3102C24.8398 34.774 26.0498 33.567 27.5898 33.567C29.1298 33.567 30.3398 34.774 30.3398 36.3102V50.0264H33.0898V36.3102C33.0898 34.774 34.2998 33.567 35.8398 33.567C37.3798 33.567 38.5898 34.774 38.5898 36.3102V50.0264H41.3398V36.3102C41.3398 34.774 42.5498 33.567 44.0898 33.567C45.6298 33.567 46.8398 34.774 46.8398 36.3102V50.0264ZM57.8398 80.2021C56.2998 80.2021 55.0898 78.9951 55.0898 77.4589V60.9994H52.3398C50.7998 60.9994 49.5898 59.7924 49.5898 58.2562V44.5399C49.5898 39.7118 52.7248 35.597 57.0698 34.1705C58.7748 33.567 60.5898 34.9386 60.5898 36.804V77.4589C60.5898 78.9951 59.3798 80.2021 57.8398 80.2021Z" fill="#8CF104"/>
</svg>
