<svg width="109" height="105" viewBox="0 0 109 105" fill="none" xmlns="http://www.w3.org/2000/svg">
<path d="M48.5036 19.233C48.5036 24.1585 46.5418 28.8822 43.0498 32.365C39.5577 35.8479 34.8215 37.8045 29.8829 37.8045C24.9444 37.8045 20.2082 35.8479 16.7161 32.365C13.2241 28.8822 11.2623 24.1585 11.2623 19.233C11.2623 14.3076 13.2241 9.58388 16.7161 6.10107C20.2082 2.61825 24.9444 0.661621 29.8829 0.661621C34.8215 0.661621 39.5577 2.61825 43.0498 6.10107C46.5418 9.58388 48.5036 14.3076 48.5036 19.233ZM74.5726 30.3759C70.5924 30.3729 66.633 30.9485 62.8192 32.0845C61.1042 29.8898 60.0417 27.2588 59.7525 24.4913C59.4634 21.7237 59.9594 18.9308 61.1839 16.4306C62.4084 13.9304 64.3123 11.8235 66.6787 10.3496C69.0451 8.87584 71.779 8.09444 74.5689 8.09444C77.3588 8.09444 80.0926 8.87584 82.4591 10.3496C84.8255 11.8235 86.7294 13.9304 87.9539 16.4306C89.1784 18.9308 89.6743 21.7237 89.3852 24.4913C89.0961 27.2588 88.0335 29.8898 86.3185 32.0845C82.5072 30.9492 78.5503 30.3737 74.5726 30.3759ZM11.2623 45.233H42.9696C36.9044 52.5457 33.5926 61.7427 33.6071 71.233C33.6071 73.7142 33.8305 76.1359 34.2551 78.4908C32.8006 78.6063 31.342 78.6633 29.8829 78.6616C0.0898438 78.6616 0.0898438 56.933 0.0898438 56.933V56.3759C0.0898438 53.4206 1.26693 50.5864 3.36217 48.4967C5.4574 46.407 8.29915 45.233 11.2623 45.233ZM108.09 71.233C108.09 80.0989 104.559 88.6015 98.2729 94.8706C91.9872 101.14 83.4619 104.662 74.5726 104.662C65.6833 104.662 57.158 101.14 50.8723 94.8706C44.5866 88.6015 41.0554 80.0989 41.0554 71.233C41.0554 62.3672 44.5866 53.8646 50.8723 47.5955C57.158 41.3264 65.6833 37.8045 74.5726 37.8045C83.4619 37.8045 91.9872 41.3264 98.2729 47.5955C104.559 53.8646 108.09 62.3672 108.09 71.233ZM78.118 51.6216C77.9028 50.8487 77.4397 50.1673 76.7994 49.6818C76.1591 49.1963 75.3769 48.9335 74.5726 48.9335C73.7683 48.9335 72.9861 49.1963 72.3458 49.6818C71.7055 50.1673 71.2424 50.8487 71.0272 51.6216L67.4744 63.0022H55.9519C52.3469 63.0022 50.8424 67.8085 53.7621 70.0148L63.0725 77.0496L59.5196 88.4302C58.4024 91.9959 62.3351 94.9673 65.2548 92.761L74.5652 85.7262L83.8755 92.761C86.7952 94.9673 90.7279 91.9959 89.6107 88.4302L86.0578 77.0496L95.3682 70.0148C98.2879 67.8085 96.7834 63.0022 93.1784 63.0022H81.6634L78.1105 51.629L78.118 51.6216Z" fill="#8CF104"/>
</svg>
