<svg width="75" height="96" viewBox="0 0 75 96" fill="none" xmlns="http://www.w3.org/2000/svg">
<path d="M16.0714 96C14.5536 96 13.2804 95.488 12.2518 94.464C11.2232 93.44 10.7107 92.1742 10.7143 90.6666V74.6667H64.2857V90.6666C64.2857 92.1778 63.7714 93.4453 62.7428 94.4693C61.7143 95.4933 60.4428 96.0035 58.9286 96H16.0714ZM75 26.6667V42.6667C75 42.9333 74.9107 43.2889 74.7321 43.7333L70.7143 64C70.4464 65.6 69.7089 66.8889 68.5018 67.8667C67.2946 68.8444 65.8893 69.3333 64.2857 69.3333H10.7143C9.10714 69.3333 7.7 68.8444 6.49285 67.8667C5.28571 66.8889 4.55 65.6 4.28571 64L0.267858 43.7333C0.0892867 43.2889 0 42.9333 0 42.6667V10.6667C0 7.73334 1.05 5.22134 3.15 3.13067C5.25 1.04001 7.77143 -0.0035465 10.7143 9.0549e-06H53.5714C56.5178 9.0549e-06 59.0411 1.04534 61.1411 3.13601C63.2411 5.22667 64.2893 7.7369 64.2857 10.6667V26.6667C64.2857 25.1556 64.8 23.888 65.8286 22.864C66.8571 21.84 68.1286 21.3298 69.6428 21.3333C71.1607 21.3333 72.4339 21.8453 73.4625 22.8693C74.491 23.8933 75.0036 25.1591 75 26.6667ZM16.0714 37.3333H48.2143V21.3333H16.0714V37.3333Z" fill="#8CF104"/>
</svg>
