<svg width="310" height="54" viewBox="0 0 310 54" fill="none" xmlns="http://www.w3.org/2000/svg">
<path d="M27 0L33.0619 18.6565H52.6785L36.8083 30.1869L42.8702 48.8435L27 37.3131L11.1298 48.8435L17.1917 30.1869L1.32147 18.6565H20.9381L27 0Z" fill="white"/>
<path d="M91 0L97.0619 18.6565H116.679L100.808 30.1869L106.87 48.8435L91 37.3131L75.1298 48.8435L81.1917 30.1869L65.3215 18.6565H84.9381L91 0Z" fill="white"/>
<path d="M155 0L161.062 18.6565H180.679L164.808 30.1869L170.87 48.8435L155 37.3131L139.13 48.8435L145.192 30.1869L129.321 18.6565H148.938L155 0Z" fill="white"/>
<path d="M219 0L225.062 18.6565H244.679L228.808 30.1869L234.87 48.8435L219 37.3131L203.13 48.8435L209.192 30.1869L193.321 18.6565H212.938L219 0Z" fill="white"/>
<path d="M283 0L289.062 18.6565H308.679L292.808 30.1869L298.87 48.8435L283 37.3131L267.13 48.8435L273.192 30.1869L257.321 18.6565H276.938L283 0Z" fill="white"/>
</svg>
