<svg width="44" height="44" viewBox="0 0 44 44" fill="none" xmlns="http://www.w3.org/2000/svg">
<path d="M43.9744 33.2375C43.5821 36.2186 42.1181 38.9549 39.8557 40.9355C37.5933 42.9161 34.6874 44.0054 31.6806 44C14.2123 44 1.99074e-05 29.7878 1.99074e-05 12.3197C-0.00537014 9.31288 1.08395 6.40695 3.06453 4.1446C5.0451 1.88226 7.78149 0.418234 10.7626 0.0259551C11.5165 -0.0660918 12.2799 0.0881318 12.9389 0.465604C13.5978 0.843076 14.1171 1.42355 14.4191 2.12037L19.0655 12.4935V12.5199C19.2967 13.0533 19.3922 13.6356 19.3435 14.2149C19.2947 14.7942 19.1032 15.3525 18.7861 15.8397C18.7465 15.8991 18.7047 15.9541 18.6607 16.0091L14.0803 21.4388C15.7281 24.7872 19.2306 28.2588 22.623 29.911L27.9779 25.3548C28.0305 25.3106 28.0856 25.2695 28.1429 25.2316C28.6298 24.9069 29.1899 24.7087 29.7726 24.6549C30.3554 24.6011 30.9423 24.6935 31.4804 24.9236L31.509 24.9368L41.8733 29.581C42.5714 29.8819 43.1533 30.4007 43.532 31.0598C43.9107 31.7189 44.0659 32.4829 43.9744 33.2375Z" fill="#8CF104"/>
</svg>
