<svg width="64" height="64" viewBox="0 0 64 64" fill="none" xmlns="http://www.w3.org/2000/svg">
<path d="M31.5898 0.661621C14.1937 0.661621 0.0898438 14.7654 0.0898438 32.1616C0.0898438 49.5578 14.1937 63.6616 31.5898 63.6616C48.986 63.6616 63.0898 49.5578 63.0898 32.1616C63.0898 14.7654 48.986 0.661621 31.5898 0.661621ZM46.1283 37.0078H31.5898C30.9472 37.0078 30.3309 36.7525 29.8765 36.2981C29.4221 35.8437 29.1668 35.2273 29.1668 34.5847V12.777C29.1668 12.1344 29.4221 11.518 29.8765 11.0636C30.3309 10.6092 30.9472 10.3539 31.5898 10.3539C32.2325 10.3539 32.8488 10.6092 33.3032 11.0636C33.7576 11.518 34.0129 12.1344 34.0129 12.777V32.1616H46.1283C46.7709 32.1616 47.3873 32.4169 47.8417 32.8713C48.2961 33.3257 48.5514 33.9421 48.5514 34.5847C48.5514 35.2273 48.2961 35.8437 47.8417 36.2981C47.3873 36.7525 46.7709 37.0078 46.1283 37.0078Z" fill="#8CF104"/>
</svg>
