<svg width="64" height="64" viewBox="0 0 64 64" fill="none" xmlns="http://www.w3.org/2000/svg">
<path d="M31.5898 0.662109C14.1937 0.662109 0.0898438 14.7659 0.0898438 32.1621C0.0898438 49.5583 14.1937 63.6621 31.5898 63.6621C48.986 63.6621 63.0898 49.5583 63.0898 32.1621C63.0898 14.7659 48.986 0.662109 31.5898 0.662109ZM46.1283 37.0083H31.5898C30.9472 37.0083 30.3309 36.753 29.8765 36.2986C29.4221 35.8441 29.1668 35.2278 29.1668 34.5852V12.7775C29.1668 12.1349 29.4221 11.5185 29.8765 11.0641C30.3309 10.6097 30.9472 10.3544 31.5898 10.3544C32.2325 10.3544 32.8488 10.6097 33.3032 11.0641C33.7576 11.5185 34.0129 12.1349 34.0129 12.7775V32.1621H46.1283C46.7709 32.1621 47.3873 32.4174 47.8417 32.8718C48.2961 33.3262 48.5514 33.9425 48.5514 34.5852C48.5514 35.2278 48.2961 35.8441 47.8417 36.2986C47.3873 36.753 46.7709 37.0083 46.1283 37.0083Z" fill="white"/>
</svg>
