<svg width="379" height="54" viewBox="0 0 379 54" fill="none" xmlns="http://www.w3.org/2000/svg">
<path d="M14.638 0.149999H17.602V19H14.638V10.55H5.174V19H2.21V0.149999H5.174V8.054H14.638V0.149999ZM30.3607 13.358V12.344C26.0187 12.76 23.7307 13.384 23.7307 15.178C23.7307 16.452 24.7187 17.258 26.3827 17.258C28.5927 17.258 30.3607 16.14 30.3607 13.358ZM25.7847 19.338C22.9507 19.338 20.7927 17.778 20.7927 15.23C20.7927 11.824 24.8227 10.888 30.2307 10.342V10.056C30.2307 7.586 28.9307 6.754 27.2147 6.754C25.3427 6.754 24.2767 7.69 24.1727 9.432H21.4427C21.6507 6.442 24.1207 4.674 27.3187 4.674C30.9327 4.674 32.9867 6.416 32.9607 10.602C32.9607 10.94 32.9087 13.358 32.9087 13.956C32.9087 16.062 33.0387 17.752 33.2987 19H30.6987C30.5947 18.454 30.5427 18.064 30.4647 17.154C29.6327 18.584 28.0727 19.338 25.7847 19.338ZM48.9462 5.818C52.1702 5.818 54.9522 8.054 54.9522 12.448C54.9522 16.946 51.9362 19.338 48.4522 19.338C44.8122 19.338 41.7962 16.764 41.7962 11.538V10.108C41.8742 5.038 43.8502 1.814 49.1802 0.852L53.9122 0.0199995V2.36L49.3102 3.244C46.2942 3.79 44.5262 5.09 44.1102 8.548C45.0722 6.702 46.9442 5.818 48.9462 5.818ZM48.4782 17.076C50.6622 17.076 52.1182 15.438 52.1182 12.5C52.1182 9.562 50.5062 8.08 48.5042 8.08C46.4242 8.08 44.6302 9.458 44.6302 12.474C44.6302 15.36 46.2162 17.076 48.4782 17.076ZM63.8607 17.024C65.8367 17.024 66.9287 16.218 67.5267 14.892H70.2567C69.6327 17.206 67.5007 19.338 63.9647 19.338C59.4667 19.338 56.9967 16.036 56.9967 11.98C56.9967 7.638 59.9087 4.752 63.8867 4.752C68.2027 4.752 70.7247 8.288 70.4387 12.838H59.7787C60.0647 15.438 61.6507 17.024 63.8607 17.024ZM63.8607 6.962C61.7547 6.962 60.2207 8.028 59.8307 10.706H67.6307C67.5527 8.652 66.0707 6.962 63.8607 6.962ZM79.0418 4.752C82.2398 4.752 84.6838 7.014 85.0998 9.744H82.3958C82.1098 8.158 80.6798 7.066 78.9118 7.066C76.9618 7.066 75.1678 8.6 75.1678 12.006C75.1678 15.464 76.9618 17.024 78.9118 17.024C80.6538 17.024 82.1098 16.01 82.4998 14.346H85.2298C84.6578 17.284 81.9538 19.338 78.8598 19.338C74.8038 19.338 72.2818 16.27 72.2818 12.032C72.2818 7.898 74.9078 4.752 79.0418 4.752ZM99.9613 5.012V19H97.2573V7.17H90.6013V19H87.8973V5.012H99.9613ZM115.256 5.012V19H112.552V7.17H108.21L108.08 9.796C107.794 15.698 106.546 19 102.932 19H102.438V16.842H102.724C104.388 16.842 105.194 14.71 105.48 9.38L105.688 5.012H115.256ZM127.759 13.358V12.344C123.417 12.76 121.129 13.384 121.129 15.178C121.129 16.452 122.117 17.258 123.781 17.258C125.991 17.258 127.759 16.14 127.759 13.358ZM123.183 19.338C120.349 19.338 118.191 17.778 118.191 15.23C118.191 11.824 122.221 10.888 127.629 10.342V10.056C127.629 7.586 126.329 6.754 124.613 6.754C122.741 6.754 121.675 7.69 121.571 9.432H118.841C119.049 6.442 121.519 4.674 124.717 4.674C128.331 4.674 130.385 6.416 130.359 10.602C130.359 10.94 130.307 13.358 130.307 13.956C130.307 16.062 130.437 17.752 130.697 19H128.097C127.993 18.454 127.941 18.064 127.863 17.154C127.031 18.584 125.471 19.338 123.183 19.338ZM144.319 7.17H139.405V19H136.701V7.17H131.761V5.012H144.319V7.17ZM158.871 19H156.167V12.916H149.355V19H146.651V5.012H149.355V10.758H156.167V5.012H158.871V19ZM163.242 23.55H161.942V21.392H163.008C164.464 21.392 165.088 21.262 165.764 19.286L165.868 18.974L160.824 5.012H163.814L167.194 15.438L170.496 5.012H173.304L168.364 19.312C167.194 22.614 166.414 23.55 163.242 23.55ZM186.966 4.752C190.164 4.752 193.518 6.988 193.518 12.058C193.518 17.102 190.164 19.338 186.966 19.338C184.028 19.338 180.934 17.362 180.596 12.916H177.97V19H175.266V5.012H177.97V10.758H180.648C181.142 6.598 184.184 4.752 186.966 4.752ZM186.966 17.05C188.89 17.05 190.658 15.464 190.658 12.058C190.658 8.6 188.89 7.04 186.966 7.04C185.172 7.04 183.43 8.522 183.43 12.058C183.43 15.49 185.172 17.05 186.966 17.05ZM211.482 19L206.776 12.838H205.138V19H202.434V5.012H205.138V10.68H206.854L211.118 5.012H214.264L208.986 11.694L214.732 19H211.482ZM218.269 12.058C218.269 15.49 220.167 17.05 222.195 17.05C224.275 17.05 226.147 15.464 226.147 12.058C226.147 8.6 224.275 7.04 222.195 7.04C220.167 7.04 218.269 8.522 218.269 12.058ZM222.195 4.752C225.523 4.752 229.007 6.988 229.007 12.058C229.007 17.102 225.523 19.338 222.195 19.338C218.893 19.338 215.409 17.102 215.409 12.058C215.409 6.988 218.893 4.752 222.195 4.752ZM244.057 19H241.353V12.916H234.541V19H231.837V5.012H234.541V10.758H241.353V5.012H244.057V19ZM253.628 4.752C256.826 4.752 259.27 7.014 259.686 9.744H256.982C256.696 8.158 255.266 7.066 253.498 7.066C251.548 7.066 249.754 8.6 249.754 12.006C249.754 15.464 251.548 17.024 253.498 17.024C255.24 17.024 256.696 16.01 257.086 14.346H259.816C259.244 17.284 256.54 19.338 253.446 19.338C249.39 19.338 246.868 16.27 246.868 12.032C246.868 7.898 249.494 4.752 253.628 4.752ZM262.824 23.55H261.524V21.392H262.59C264.046 21.392 264.67 21.262 265.346 19.286L265.45 18.974L260.406 5.012H263.396L266.776 15.438L270.078 5.012H272.886L267.946 19.312C266.776 22.614 265.996 23.55 262.824 23.55ZM284.942 5.012V19H282.238V7.17H277.896L277.766 9.796C277.48 15.698 276.232 19 272.618 19H272.124V16.842H272.41C274.074 16.842 274.88 14.71 275.166 9.38L275.374 5.012H284.942ZM291.543 9.848H294.715C298.433 9.848 300.071 11.538 300.071 14.32C300.071 17.856 297.809 19 294.481 19H288.839V5.012H291.543V9.848ZM291.543 16.842H294.403C296.379 16.842 297.367 16.088 297.367 14.32C297.367 12.578 296.379 12.006 294.377 12.006H291.543V16.842ZM311.973 7.17H307.059V19H304.355V7.17H299.415V5.012H311.973V7.17ZM322.175 13.358V12.344C317.833 12.76 315.545 13.384 315.545 15.178C315.545 16.452 316.533 17.258 318.197 17.258C320.407 17.258 322.175 16.14 322.175 13.358ZM317.599 19.338C314.765 19.338 312.607 17.778 312.607 15.23C312.607 11.824 316.637 10.888 322.045 10.342V10.056C322.045 7.586 320.745 6.754 319.029 6.754C317.157 6.754 316.091 7.69 315.987 9.432H313.257C313.465 6.442 315.935 4.674 319.133 4.674C322.747 4.674 324.801 6.416 324.775 10.602C324.775 10.94 324.723 13.358 324.723 13.956C324.723 16.062 324.853 17.752 325.113 19H322.513C322.409 18.454 322.357 18.064 322.279 17.154C321.447 18.584 319.887 19.338 317.599 19.338ZM339.893 16.842H341.895V22.328H339.347V19H328.245V5.012H330.949V16.842H337.189V5.012H339.893V16.842ZM347.274 19H344.622V5.012H347.274V15.126L354.112 5.012H356.764V19H354.112V8.912L347.274 19ZM372.394 4.752C375.592 4.752 378.946 6.988 378.946 12.058C378.946 17.102 375.592 19.338 372.394 19.338C369.456 19.338 366.362 17.362 366.024 12.916H363.398V19H360.694V5.012H363.398V10.758H366.076C366.57 6.598 369.612 4.752 372.394 4.752ZM372.394 17.05C374.318 17.05 376.086 15.464 376.086 12.058C376.086 8.6 374.318 7.04 372.394 7.04C370.6 7.04 368.858 8.522 368.858 12.058C368.858 15.49 370.6 17.05 372.394 17.05ZM3.744 42.058C3.744 45.49 5.642 47.05 7.67 47.05C9.75 47.05 11.622 45.464 11.622 42.058C11.622 38.6 9.75 37.04 7.67 37.04C5.642 37.04 3.744 38.522 3.744 42.058ZM7.67 34.752C10.998 34.752 14.482 36.988 14.482 42.058C14.482 47.102 10.998 49.338 7.67 49.338C4.368 49.338 0.884 47.102 0.884 42.058C0.884 36.988 4.368 34.752 7.67 34.752ZM27.7253 37.17H22.8113V49H20.1073V37.17H15.1673V35.012H27.7253V37.17ZM48.3712 49H45.6672V42.916H38.8552V49H36.1512V35.012H38.8552V40.758H45.6672V35.012H48.3712V49ZM60.8802 43.358V42.344C56.5382 42.76 54.2502 43.384 54.2502 45.178C54.2502 46.452 55.2382 47.258 56.9022 47.258C59.1122 47.258 60.8802 46.14 60.8802 43.358ZM56.3042 49.338C53.4702 49.338 51.3122 47.778 51.3122 45.23C51.3122 41.824 55.3422 40.888 60.7502 40.342V40.056C60.7502 37.586 59.4502 36.754 57.7342 36.754C55.8622 36.754 54.7962 37.69 54.6922 39.432H51.9622C52.1702 36.442 54.6402 34.674 57.8382 34.674C61.4522 34.674 63.5062 36.416 63.4802 40.602C63.4802 40.94 63.4282 43.358 63.4282 43.956C63.4282 46.062 63.5582 47.752 63.8182 49H61.2182C61.1142 48.454 61.0622 48.064 60.9842 47.154C60.1522 48.584 58.5922 49.338 56.3042 49.338ZM84.786 35.012V49H66.95V35.012H69.654V46.842H74.516V35.012H77.22V46.842H82.082V35.012H84.786ZM94.4564 47.024C96.4324 47.024 97.5244 46.218 98.1224 44.892H100.852C100.228 47.206 98.0964 49.338 94.5604 49.338C90.0624 49.338 87.5924 46.036 87.5924 41.98C87.5924 37.638 90.5044 34.752 94.4824 34.752C98.7984 34.752 101.32 38.288 101.034 42.838H90.3744C90.6604 45.438 92.2464 47.024 94.4564 47.024ZM94.4564 36.962C92.3504 36.962 90.8164 38.028 90.4264 40.706H98.2264C98.1484 38.652 96.6664 36.962 94.4564 36.962ZM113.047 37.17H106.547V49H103.843V35.012H113.047V37.17ZM116.631 42.058C116.631 45.49 118.529 47.05 120.557 47.05C122.637 47.05 124.509 45.464 124.509 42.058C124.509 38.6 122.637 37.04 120.557 37.04C118.529 37.04 116.631 38.522 116.631 42.058ZM120.557 34.752C123.885 34.752 127.369 36.988 127.369 42.058C127.369 47.102 123.885 49.338 120.557 49.338C117.255 49.338 113.771 47.102 113.771 42.058C113.771 36.988 117.255 34.752 120.557 34.752ZM152.256 35.012V49H149.656V37.846L145.288 49H143.26L138.892 37.95V49H136.292V35.012H140.322L144.352 45.412L148.226 35.012H152.256ZM161.919 47.024C163.895 47.024 164.987 46.218 165.585 44.892H168.315C167.691 47.206 165.559 49.338 162.023 49.338C157.525 49.338 155.055 46.036 155.055 41.98C155.055 37.638 157.967 34.752 161.945 34.752C166.261 34.752 168.783 38.288 168.497 42.838H157.837C158.123 45.438 159.709 47.024 161.919 47.024ZM161.919 36.962C159.813 36.962 158.279 38.028 157.889 40.706H165.689C165.611 38.652 164.129 36.962 161.919 36.962ZM183.525 49H180.821V42.916H174.009V49H171.305V35.012H174.009V40.758H180.821V35.012H183.525V49ZM193.201 47.024C195.177 47.024 196.269 46.218 196.867 44.892H199.597C198.973 47.206 196.841 49.338 193.305 49.338C188.807 49.338 186.337 46.036 186.337 41.98C186.337 37.638 189.249 34.752 193.227 34.752C197.543 34.752 200.065 38.288 199.779 42.838H189.119C189.405 45.438 190.991 47.024 193.201 47.024ZM193.201 36.962C191.095 36.962 189.561 38.028 189.171 40.706H196.971C196.893 38.652 195.411 36.962 193.201 36.962ZM215.957 46.842V52.328H213.409V49H203.451V52.328H200.903V46.842H201.579C203.009 46.842 203.685 44.788 203.893 39.484L204.075 35.012H213.955V46.842H215.957ZM211.251 46.842V37.17H206.597L206.415 40.29C206.233 43.54 205.817 45.698 204.699 46.842H211.251ZM220.27 49H217.02L222.168 41.668L217.462 35.012H220.556L224.352 40.68H226.068V35.012H228.772V40.68H230.462L234.284 35.012H237.404L232.698 41.616L237.82 49H234.622L230.462 42.838H228.772V49H226.068V42.838H224.43L220.27 49ZM245.378 47.024C247.354 47.024 248.446 46.218 249.044 44.892H251.774C251.15 47.206 249.018 49.338 245.482 49.338C240.984 49.338 238.514 46.036 238.514 41.98C238.514 37.638 241.426 34.752 245.404 34.752C249.72 34.752 252.242 38.288 251.956 42.838H241.296C241.582 45.438 243.168 47.024 245.378 47.024ZM245.378 36.962C243.272 36.962 241.738 38.028 241.348 40.706H249.148C249.07 38.652 247.588 36.962 245.378 36.962ZM254.634 35.012H257.338V37.066C258.196 35.61 259.626 34.752 261.706 34.752C264.956 34.752 267.738 37.456 267.738 42.032C267.738 46.608 264.956 49.338 261.706 49.338C259.626 49.338 258.196 48.48 257.338 47.024V53.55H254.634V35.012ZM257.234 42.032C257.234 45.49 259.002 47.076 261.082 47.076C263.344 47.076 264.852 45.178 264.852 42.032C264.852 38.886 263.344 37.014 261.082 37.014C259.002 37.014 257.234 38.574 257.234 42.032ZM279.163 43.358V42.344C274.821 42.76 272.533 43.384 272.533 45.178C272.533 46.452 273.521 47.258 275.185 47.258C277.395 47.258 279.163 46.14 279.163 43.358ZM274.587 49.338C271.753 49.338 269.595 47.778 269.595 45.23C269.595 41.824 273.625 40.888 279.033 40.342V40.056C279.033 37.586 277.733 36.754 276.017 36.754C274.145 36.754 273.079 37.69 272.975 39.432H270.245C270.453 36.442 272.923 34.674 276.121 34.674C279.735 34.674 281.789 36.416 281.763 40.602C281.763 40.94 281.711 43.358 281.711 43.956C281.711 46.062 281.841 47.752 282.101 49H279.501C279.397 48.454 279.345 48.064 279.267 47.154C278.435 48.584 276.875 49.338 274.587 49.338Z" fill="black"/>
</svg>
